<svg width="12" height="12" viewBox="0 0 12 12" fill="none" xmlns="http://www.w3.org/2000/svg">
<path d="M11.6191 2.87734C11.4359 2.45301 11.1716 2.06849 10.8412 1.74531C10.5105 1.42115 10.1207 1.16356 9.69277 0.986518C9.24909 0.802211 8.77321 0.707873 8.29277 0.708979C7.61875 0.708979 6.96113 0.893549 6.38965 1.24218C6.25293 1.32558 6.12305 1.41718 6 1.51699C5.87695 1.41718 5.74707 1.32558 5.61035 1.24218C5.03887 0.893549 4.38125 0.708979 3.70723 0.708979C3.22187 0.708979 2.75156 0.801948 2.30723 0.986518C1.87793 1.16425 1.49102 1.41992 1.15879 1.74531C0.827925 2.06813 0.563622 2.45274 0.380859 2.87734C0.19082 3.31894 0.09375 3.78788 0.09375 4.2705C0.09375 4.72578 0.186719 5.20019 0.371289 5.68281C0.525781 6.08613 0.747266 6.50449 1.03027 6.92695C1.47871 7.5955 2.09531 8.29277 2.86094 8.9996C4.12969 10.1713 5.38613 10.9807 5.43945 11.0135L5.76348 11.2213C5.90703 11.3129 6.0916 11.3129 6.23516 11.2213L6.55918 11.0135C6.6125 10.9793 7.86758 10.1713 9.1377 8.9996C9.90332 8.29277 10.5199 7.5955 10.9684 6.92695C11.2514 6.50449 11.4742 6.08613 11.6273 5.68281C11.8119 5.20019 11.9049 4.72578 11.9049 4.2705C11.9062 3.78788 11.8092 3.31894 11.6191 2.87734Z" fill="white"/>
</svg>
